<svg width="472" height="612" viewBox="0 0 472 612" fill="none" xmlns="http://www.w3.org/2000/svg">
<rect x="471.004" y="13.998" width="21.0058" height="470.004" rx="7" transform="rotate(89.9912 471.004 13.998)" fill="#B06020" stroke="#390803" stroke-width="2"/>
<rect x="471.005" y="537" width="21" height="469.938" rx="7" transform="rotate(89.9912 471.005 537)" fill="#B06020" stroke="#390803" stroke-width="2"/>
<rect x="437.067" y="1" width="21" height="610" rx="7" fill="#B06020" stroke="#390803" stroke-width="2"/>
<rect x="14.067" y="1" width="21" height="610" rx="7" fill="#B06020" stroke="#390803" stroke-width="2"/>
<path d="M13.067 13C15.057 13.33 19.047 14 23.052 16.655C27.057 18.99 30.387 22.98 33.722 27.815C34.397 28.99 34.727 29.98 36.067 32" stroke="#EFC38B" stroke-width="5" stroke-linecap="round"/>
<path d="M15.067 34C15.397 32.01 16.727 28.02 19.222 22.19C23.387 17.01 28.707 13.02 33.217 11.17C34.387 11 35.707 11 38.067 13" stroke="#EFC38B" stroke-width="5" stroke-linecap="round"/>
<path d="M437.067 13C438.397 14.99 441.047 19.64 444.222 23.82C448.057 26.66 452.047 28.66 456.052 29.995C457.057 30.33 458.047 30.66 458.067 31" stroke="#EFC38B" stroke-width="5" stroke-linecap="round"/>
<path d="M436.067 32C438.057 31.34 442.047 30 445.387 26.85C450.057 22.34 454.047 19.68 457.722 16.015C458.397 15.01 458.727 14.02 459.067 12" stroke="#EFC38B" stroke-width="5" stroke-linecap="round"/>
<path d="M14.067 535C14.727 536.99 17.387 540.98 20.222 544.82C23.0563 548.659 28.047 550.32 32.052 551.995C33.057 552.33 34.047 552.66 35.052 553.325C36.057 553.99 37.047 554.98 37.067 557" stroke="#EFC38B" stroke-width="5" stroke-linecap="round"/>
<path d="M35.067 536C33.077 536.66 29.087 539.98 24.917 543.32C20.407 547.99 18.407 550.99 17.077 552.985C16.407 553.99 15.747 554.98 15.067 557" stroke="#EFC38B" stroke-width="5" stroke-linecap="round"/>
<path d="M436.067 535C438.387 535.33 443.047 536.66 447.052 539.32C451.057 543.99 455.047 546.66 457.227 549.985C457.727 550.99 458.387 551.98 461.067 555" stroke="#EFC38B" stroke-width="5" stroke-linecap="round"/>
<path d="M435.067 557C437.057 556.34 442.367 555 447.217 551.85C451.727 547.01 454.387 543.02 455.562 539.015C456.057 538.01 457.047 537.02 457.067 536" stroke="#EFC38B" stroke-width="5" stroke-linecap="round"/>
<path d="M34.067 13.5C33.5695 13.5825 32.572 13.915 31.5707 14.4975C30.5998 15.0624 30.072 15.75 29.0295 16.7037C27.9261 17.7132 26.987 18.245 26.1532 19.0388C25.3906 19.7647 24.407 20.91 23.5695 21.9963C22.8347 22.9492 22.072 23.83 21.527 24.7463C20.9448 25.725 20.487 26.91 19.902 28.0375C19.3329 29.1342 18.987 30.245 18.1532 31.4538C17.5147 32.3795 17.237 33.495 16.777 34.4963C16.652 34.7475 16.487 34.995 16.3195 35.2463C16.152 35.4975 15.987 35.745 15.817 36.25" stroke="#A67245" stroke-linecap="round"/>
<path d="M28.817 18C29.3145 18.165 30.147 19.16 31.6032 20.91C32.5722 22.0744 32.982 23.245 33.772 23.8725C34.7974 24.687 35.562 25.58 36.107 26.4963C36.6891 27.475 36.982 28.495 37.5232 29.745C37.6495 30.08 37.732 30.41 37.857 30.7037C37.982 30.9975 38.147 31.245 38.567 32" stroke="#A67245" stroke-linecap="round"/>
<path d="M434.942 29.75C435.314 29.5425 436.147 29.21 436.794 29.1044C437.341 29.0151 437.814 28.6675 438.315 28.5006C438.902 28.3048 439.647 27.8775 440.19 27.4806C440.686 27.1183 441.107 26.8775 441.689 26.3563C442.364 25.7524 442.982 25.3775 443.461 25.0844C444.098 24.6941 444.689 24.46 445.19 24.1469C445.657 23.8549 446.189 23.585 446.794 23.1888C447.225 22.9059 447.689 22.585 448.107 22.1063C448.64 21.4946 449.107 21.1275 449.461 20.6269C449.845 20.085 450.357 19.7525 450.981 19.1481C451.673 18.4777 452.397 18.17 453.251 17.6063C453.917 17.1669 454.314 16.71 454.608 16.2725C454.911 15.8189 455.314 15.46 455.878 14.8981C456.281 14.4951 456.357 13.7125 456.774 12.8781C457.117 12.1909 457.399 11.7525 457.587 11.2519C457.794 10.6992 458.314 10.2525 458.939 9.98001C459.103 9.90856 459.272 9.83501 459.192 9.79251C458.828 9.59913 458.318 9.70876 458.11 9.72876C457.535 9.78398 457.527 10.7475 457.131 11.2481C457.026 11.7488 456.901 12.1238 456.818 12.3731C456.776 12.4988 456.734 12.6225 456.692 12.75" stroke="#A67245" stroke-linecap="round"/>
<path d="M454.067 16.375C453.984 16.375 453.818 16.4987 453.61 16.7481C453.484 16.9975 453.318 17.1662 453.089 17.2906C452.984 17.3737 452.902 17.4975 452.817 17.625" stroke="#A67245" stroke-linecap="round"/>
<path d="M449.942 19.875C449.734 19.9988 449.484 20.4975 449.11 20.7906C448.818 21.2487 448.402 21.7475 447.944 21.9994C447.818 22.0413 447.694 22.0825 447.567 22.375" stroke="#A67245" stroke-linecap="round"/>
<path d="M446.817 22.625C447.147 22.295 447.523 21.96 447.898 21.6894C448.066 21.5837 448.189 21.5425 448.315 21.4594C448.441 21.3762 448.564 21.2525 448.692 21.125" stroke="#A67245" stroke-linecap="round"/>
<path d="M446.942 22.625C446.652 22.5012 446.069 22.085 445.465 21.4819C444.806 20.8237 444.527 20.1275 444.276 19.6681C444.22 19.5641 444.069 19.5425 444.006 19.4594C443.72 19.0864 443.569 18.42 443.173 17.5869C442.702 16.5997 442.484 16.0025 441.965 15.3775C441.439 14.7449 441.069 14.1275 440.776 13.6475C440.461 13.1306 439.902 12.67 439.548 12.1063C439.137 11.4527 438.569 11.0025 438.069 10.7506C437.834 10.6325 437.279 10.625 436.634 10.6869C436.401 10.7488 436.359 10.8725 436.276 10.9569C436.193 11.0413 436.069 11.0825 435.817 11.25" stroke="#A67245" stroke-linecap="round"/>
<path d="M447.067 29C447.314 28.6675 448.477 28.17 449.522 27.4612C449.897 27.005 450.314 26.6675 450.772 26.4187C450.982 26.2525 451.147 26.005 451.067 25.5" stroke="#A67245" stroke-linecap="round"/>
<path d="M442.817 540.25C444.564 540.832 445.562 541.495 446.397 542.537C447.376 543.76 448.397 544.41 449.147 545.496C449.986 546.711 451.227 547.99 452.354 548.955C453.944 550.316 454.232 551.995 455.312 553.453C456.386 554.901 457.977 555.33 459.063 555.956C459.314 556.083 459.562 556.165 459.813 556.29C460.064 556.415 460.312 556.58 460.317 557.25" stroke="#A67245" stroke-linecap="round"/>
<path d="M449.067 546.5C449.564 546.665 450.562 547.66 451.314 548.746C451.656 549.239 451.899 549.83 451.983 550.454C452.022 550.745 451.902 550.995 451.736 551.164C451.003 551.908 449.657 552.495 448.737 553.537C447.659 554.759 446.322 555.08 445.279 555.458C444.049 555.903 442.987 556.495 442.071 557.206C441.246 557.846 439.907 557.995 438.613 558.748C437.612 559.33 436.572 559.415 435.571 559.708C435.072 559.75 434.569 559.585 434.071 559.335C433.819 559.25 433.572 559.25 433.317 559.25" stroke="#A67245" stroke-linecap="round"/>
<path d="M442.567 539.75C441.904 539.75 440.572 539.585 439.529 539.169C438.154 538.5 436.657 538.335 434.741 537.627C434.319 537.5 434.072 537.5 433.817 537" stroke="#A67245" stroke-linecap="round"/>
<path d="M13.8795 559.062C14.0863 559.125 14.5032 559.207 14.8773 559.302C15.7273 559.516 16.0032 559.209 16.2535 559.125C16.4983 559.044 16.8357 558.898 17.1079 558.626C17.3 558.434 17.2957 558.126 17.431 557.72C17.5251 557.438 17.6082 557.189 17.6398 556.772C17.6656 556.431 17.7957 556.189 17.8688 555.887C17.9008 555.755 18.0032 555.646 18.1395 555.438C18.3576 555.106 18.6907 554.565 18.8788 554.251C19.0278 554.002 19.1495 553.751 19.3579 553.532C19.6155 553.261 19.712 552.898 19.9826 552.564C20.2127 552.28 20.4195 552.001 20.6495 551.689C20.914 551.329 21.087 551.001 21.2848 550.678C21.6017 550.161 22.0445 549.751 22.4613 549.345C22.7221 549.091 22.9407 548.772 23.2116 548.428C23.5537 547.994 24.0232 547.71 24.2641 547.397C24.4398 547.169 24.7107 546.897 25.0554 546.595C25.2709 546.405 25.5032 546.23 25.7432 545.897C25.9209 545.651 26.1495 545.46 26.4301 545.189C26.9341 544.702 27.1282 544.398 27.3579 544.23C27.5499 544.089 27.712 543.876 27.9929 543.584C28.216 543.353 28.8745 543.065 29.316 542.772C29.542 542.621 29.8157 542.584 30.1179 542.345C30.3878 542.131 30.6907 541.855 31.0135 541.678C31.4467 541.44 31.7532 541.105 31.9932 540.98C32.2488 540.846 32.462 540.626 32.8466 540.397C33.1194 540.234 33.3782 540.084 33.6285 539.918C33.936 539.713 34.3757 539.315 34.8573 538.959C35.1056 538.776 35.337 538.689 35.6698 538.501C35.9542 538.34 36.2945 538.189 36.6698 538.001C36.9353 537.868 37.0245 537.564 37.1188 537.303C37.1295 537.148 37.1707 537.001 37.2435 536.876C37.2751 536.813 37.2957 536.751 37.2545 536.688" stroke="#A67245" stroke-linecap="round"/>
<path d="M25.692 546.688C25.5676 546.729 25.3182 546.854 25.1198 547.062C24.8699 547.323 24.6307 547.582 24.4323 547.801C24.2338 548.02 24.047 548.249 23.8801 548.551C23.7303 548.822 23.5882 549.061 23.5048 549.312C23.4213 549.562 23.3795 549.811 23.4416 550.062C23.4576 550.126 23.4832 550.186 23.4629 550.208C23.2551 550.146 23.0676 550.062 22.9429 550.042C22.8801 550.021 22.8182 549.98 22.8795 549.938" stroke="#A67245" stroke-linecap="round"/>
<path d="M23.8795 549.125C23.8795 549.559 23.962 550.478 24.0666 550.749C24.1672 551.01 24.4407 551.249 24.6391 551.478C24.8342 551.704 25.1907 551.791 25.441 551.927C25.6763 552.054 25.9407 552.145 26.4813 552.53C26.9044 552.831 27.2732 552.936 27.8254 553.176C28.2488 553.36 28.6907 553.562 28.9823 553.687C29.4674 553.894 29.8982 553.979 30.4813 554.187C30.9573 554.356 31.232 554.52 31.6998 554.769C32.7404 555.324 33.0032 555.5 33.3054 555.676C33.5663 555.854 33.857 556.061 34.2738 556.312C34.3582 556.374 34.3995 556.436 34.442 556.562" stroke="#A67245" stroke-linecap="round"/>
<path d="M23.067 550.125C23.067 550.166 23.1701 550.291 23.3366 550.478C23.4001 550.562 23.4207 550.624 23.4623 550.676C23.5038 550.729 23.5657 550.77 23.6295 550.812" stroke="#A67245" stroke-linecap="round"/>
</svg>
